<mxfile host="app.diagrams.net" modified="2023-12-19T20:28:32.316Z" agent="Mozilla/5.0 (Windows NT 10.0; Win64; x64) AppleWebKit/537.36 (KHTML, like Gecko) Chrome/120.0.0.0 Safari/537.36" etag="9GeAww7-Ou7Fdoq6fW9n" version="22.1.11" type="device">
  <diagram name="Page-1" id="Nn_ce1nU_u51uuhjz7F7">
    <mxGraphModel dx="1313" dy="653" grid="1" gridSize="10" guides="1" tooltips="1" connect="1" arrows="1" fold="1" page="1" pageScale="1" pageWidth="850" pageHeight="1100" math="0" shadow="0">
      <root>
        <mxCell id="0" />
        <mxCell id="1" parent="0" />
        <mxCell id="wvM8QTy4C0sOxL3V0f05-1" value="Spare EG" style="ellipse;whiteSpace=wrap;html=1;aspect=fixed;" parent="1" vertex="1">
          <mxGeometry x="385" y="220" width="135" height="135" as="geometry" />
        </mxCell>
        <mxCell id="wvM8QTy4C0sOxL3V0f05-6" value="" style="endArrow=classic;html=1;rounded=0;entryX=0;entryY=1;entryDx=0;entryDy=0;" parent="1" edge="1">
          <mxGeometry relative="1" as="geometry">
            <mxPoint x="400" y="230" as="sourcePoint" />
            <mxPoint x="400" y="100" as="targetPoint" />
          </mxGeometry>
        </mxCell>
        <mxCell id="wvM8QTy4C0sOxL3V0f05-11" value="Users" style="rounded=0;whiteSpace=wrap;html=1;" parent="1" vertex="1">
          <mxGeometry x="362.5" y="40" width="180" height="60" as="geometry" />
        </mxCell>
        <mxCell id="wvM8QTy4C0sOxL3V0f05-13" value="" style="endArrow=classic;html=1;rounded=0;entryX=0;entryY=0.25;entryDx=0;entryDy=0;exitX=0.967;exitY=0.311;exitDx=0;exitDy=0;exitPerimeter=0;" parent="1" source="wvM8QTy4C0sOxL3V0f05-1" target="wvM8QTy4C0sOxL3V0f05-20" edge="1">
          <mxGeometry relative="1" as="geometry">
            <mxPoint x="522.835" y="265.89" as="sourcePoint" />
            <mxPoint x="770" y="250" as="targetPoint" />
            <Array as="points">
              <mxPoint x="730" y="260" />
            </Array>
          </mxGeometry>
        </mxCell>
        <mxCell id="wvM8QTy4C0sOxL3V0f05-14" value="Product details retrieved" style="edgeLabel;resizable=0;html=1;align=center;verticalAlign=middle;" parent="wvM8QTy4C0sOxL3V0f05-13" connectable="0" vertex="1">
          <mxGeometry relative="1" as="geometry" />
        </mxCell>
        <mxCell id="wvM8QTy4C0sOxL3V0f05-17" value="" style="endArrow=classic;html=1;rounded=0;exitX=0;exitY=1;exitDx=0;exitDy=0;entryX=0.973;entryY=0.726;entryDx=0;entryDy=0;entryPerimeter=0;" parent="1" edge="1">
          <mxGeometry relative="1" as="geometry">
            <mxPoint x="770" y="301.99" as="sourcePoint" />
            <mxPoint x="516.355" y="300" as="targetPoint" />
            <Array as="points" />
          </mxGeometry>
        </mxCell>
        <mxCell id="wvM8QTy4C0sOxL3V0f05-18" value="Product details pushed" style="edgeLabel;resizable=0;html=1;align=center;verticalAlign=middle;" parent="wvM8QTy4C0sOxL3V0f05-17" connectable="0" vertex="1">
          <mxGeometry relative="1" as="geometry">
            <mxPoint x="5" y="-1" as="offset" />
          </mxGeometry>
        </mxCell>
        <mxCell id="wvM8QTy4C0sOxL3V0f05-20" value="Product Information &amp;amp; Database" style="rounded=0;whiteSpace=wrap;html=1;" parent="1" vertex="1">
          <mxGeometry x="770" y="240" width="160" height="80" as="geometry" />
        </mxCell>
        <mxCell id="wvM8QTy4C0sOxL3V0f05-21" value="Payment Gateway Service" style="rounded=0;whiteSpace=wrap;html=1;" parent="1" vertex="1">
          <mxGeometry x="370" y="480" width="172.5" height="60" as="geometry" />
        </mxCell>
        <mxCell id="wvM8QTy4C0sOxL3V0f05-22" value="Technical Documentation Service" style="rounded=0;whiteSpace=wrap;html=1;" parent="1" vertex="1">
          <mxGeometry x="10" y="240" width="160" height="70" as="geometry" />
        </mxCell>
        <mxCell id="wvM8QTy4C0sOxL3V0f05-23" value="" style="endArrow=classic;html=1;rounded=0;entryX=0.062;entryY=0.224;entryDx=0;entryDy=0;entryPerimeter=0;exitX=1.005;exitY=0.14;exitDx=0;exitDy=0;exitPerimeter=0;" parent="1" source="wvM8QTy4C0sOxL3V0f05-22" target="wvM8QTy4C0sOxL3V0f05-1" edge="1">
          <mxGeometry relative="1" as="geometry">
            <mxPoint x="170" y="250" as="sourcePoint" />
            <mxPoint x="387.1600000000001" y="254.20500000000004" as="targetPoint" />
          </mxGeometry>
        </mxCell>
        <mxCell id="wvM8QTy4C0sOxL3V0f05-24" value="Responses and requested service" style="edgeLabel;resizable=0;html=1;align=center;verticalAlign=middle;" parent="wvM8QTy4C0sOxL3V0f05-23" connectable="0" vertex="1">
          <mxGeometry relative="1" as="geometry">
            <mxPoint x="-2" y="1" as="offset" />
          </mxGeometry>
        </mxCell>
        <mxCell id="wvM8QTy4C0sOxL3V0f05-25" value="" style="endArrow=classic;html=1;rounded=0;entryX=0;entryY=1;entryDx=0;entryDy=0;exitX=0.213;exitY=-0.02;exitDx=0;exitDy=0;exitPerimeter=0;" parent="1" source="wvM8QTy4C0sOxL3V0f05-21" target="wvM8QTy4C0sOxL3V0f05-1" edge="1">
          <mxGeometry relative="1" as="geometry">
            <mxPoint x="410" y="470" as="sourcePoint" />
            <mxPoint x="410" y="360" as="targetPoint" />
          </mxGeometry>
        </mxCell>
        <mxCell id="wvM8QTy4C0sOxL3V0f05-26" value="Payment Confirmation" style="edgeLabel;resizable=0;html=1;align=center;verticalAlign=middle;" parent="wvM8QTy4C0sOxL3V0f05-25" connectable="0" vertex="1">
          <mxGeometry relative="1" as="geometry">
            <mxPoint x="-13" as="offset" />
          </mxGeometry>
        </mxCell>
        <mxCell id="wvM8QTy4C0sOxL3V0f05-27" value="" style="endArrow=classic;html=1;rounded=0;entryX=0.695;entryY=-0.073;entryDx=0;entryDy=0;exitX=0.938;exitY=0.833;exitDx=0;exitDy=0;exitPerimeter=0;entryPerimeter=0;" parent="1" source="wvM8QTy4C0sOxL3V0f05-1" edge="1">
          <mxGeometry relative="1" as="geometry">
            <mxPoint x="510.005" y="351.145" as="sourcePoint" />
            <mxPoint x="511.71375" y="480" as="targetPoint" />
          </mxGeometry>
        </mxCell>
        <mxCell id="wvM8QTy4C0sOxL3V0f05-28" value="Payment Information" style="edgeLabel;resizable=0;html=1;align=center;verticalAlign=middle;" parent="wvM8QTy4C0sOxL3V0f05-27" connectable="0" vertex="1">
          <mxGeometry relative="1" as="geometry">
            <mxPoint x="24" as="offset" />
          </mxGeometry>
        </mxCell>
        <mxCell id="wvM8QTy4C0sOxL3V0f05-29" value="" style="endArrow=classic;html=1;rounded=0;entryX=0.985;entryY=0.847;entryDx=0;entryDy=0;exitX=-0.017;exitY=0.591;exitDx=0;exitDy=0;exitPerimeter=0;entryPerimeter=0;" parent="1" edge="1">
          <mxGeometry relative="1" as="geometry">
            <mxPoint x="385.1049999999999" y="299.7850000000001" as="sourcePoint" />
            <mxPoint x="169.99999999999991" y="299.28999999999996" as="targetPoint" />
            <Array as="points" />
          </mxGeometry>
        </mxCell>
        <mxCell id="wvM8QTy4C0sOxL3V0f05-30" value="Technical documentation provided" style="edgeLabel;resizable=0;html=1;align=center;verticalAlign=middle;" parent="wvM8QTy4C0sOxL3V0f05-29" connectable="0" vertex="1">
          <mxGeometry relative="1" as="geometry">
            <mxPoint x="12" as="offset" />
          </mxGeometry>
        </mxCell>
        <mxCell id="wXYaHXASImngwSdedwRZ-1" value="Delivery of user interface and functionalities&amp;nbsp;" style="text;html=1;align=center;verticalAlign=middle;resizable=0;points=[];autosize=1;strokeColor=none;fillColor=none;" vertex="1" parent="1">
          <mxGeometry x="150" y="140" width="260" height="30" as="geometry" />
        </mxCell>
        <mxCell id="wXYaHXASImngwSdedwRZ-3" value="" style="endArrow=classic;html=1;rounded=0;" edge="1" parent="1">
          <mxGeometry relative="1" as="geometry">
            <mxPoint x="500" y="100" as="sourcePoint" />
            <mxPoint x="500" y="230" as="targetPoint" />
          </mxGeometry>
        </mxCell>
        <mxCell id="wXYaHXASImngwSdedwRZ-4" value="user interaction" style="text;html=1;align=center;verticalAlign=middle;resizable=0;points=[];autosize=1;strokeColor=none;fillColor=none;" vertex="1" parent="1">
          <mxGeometry x="500" y="140" width="110" height="30" as="geometry" />
        </mxCell>
      </root>
    </mxGraphModel>
  </diagram>
</mxfile>
